<?xml version="1.0" encoding="utf-8"?>
<!-- Generator: Adobe Illustrator 23.0.2, SVG Export Plug-In . SVG Version: 6.00 Build 0)  -->
<!DOCTYPE svg PUBLIC "-//W3C//DTD SVG 1.1//EN" "http://www.w3.org/Graphics/SVG/1.1/DTD/svg11.dtd" [
	<!ENTITY st0 "clip-path:url(#SVGID_2_);">
	<!ENTITY st1 "clip-path:url(#SVGID_4_);">
]>
<svg version="1.1" id="Layer_1" xmlns="http://www.w3.org/2000/svg" xmlns:xlink="http://www.w3.org/1999/xlink" x="0px" y="0px"
	 viewBox="0 0 578.6 209.2" style="enable-background:new 0 0 578.6 209.2;" xml:space="preserve">
<title>elkjop</title>
<path d="M525.3,118.4l-24.2,25.8c-14.7,14.7-17.2,33.4-17.2,40.7c0,0.5-0.1,1.1-0.1,1.7v1.1c0.1,5.4,0.8,10.7,2.2,15.9l1.8,5.6
	l51.2-52c13.3-13.3,13.3-34.9,0.1-48.2c0,0,0,0-0.1-0.1l-6.3-6.3l-2.7-2.8C531.3,106.4,529.7,113.3,525.3,118.4"/>
<g>
	<g>
		<defs>
			<path id="SVGID_1_" d="M525.3,118.4l-24.2,25.8c-14.7,14.7-17.2,33.4-17.2,40.7c0,0.5-0.1,1.1-0.1,1.7v1.1
				c0.1,5.4,0.8,10.7,2.2,15.9l1.8,5.6l51.2-52c13.3-13.3,13.3-34.9,0.1-48.2c0,0,0,0-0.1-0.1l-6.3-6.3l-2.7-2.8
				C531.3,106.4,529.7,113.3,525.3,118.4"/>
		</defs>
		<clipPath id="SVGID_2_">
			<use xlink:href="#SVGID_1_"  style="overflow:visible;"/>
		</clipPath>
		<g style="&st0;">
			<rect x="453.3" y="95.2" transform="matrix(0.6046 -0.7965 0.7965 0.6046 81.2074 472.6733)" width="126.9" height="118.6"/>
		</g>
	</g>
</g>
<path d="M486.1,5.6c-2.4,11.1-2,22.7,1.2,33.6c4.3,14.9,16.3,28.6,16.3,28.6l50.5,50.7c5.1,5.1,7.4,12.5,6,19.6l0,0l2.2-2.5l6.5-6.4
	c5.6-5.6,9.1-13,9.8-20.8c0.1-1,0.2-2.1,0.2-3.1V105c0-9-3.6-17.6-10-24L487.1,0L486.1,5.6z"/>
<g>
	<g>
		<defs>
			<path id="SVGID_3_" d="M486.1,5.6c-2.4,11.1-2,22.7,1.2,33.6c4.3,14.9,16.3,28.6,16.3,28.6l50.5,50.7c5.1,5.1,7.4,12.5,6,19.6
				l0,0l2.2-2.5l6.5-6.4c5.6-5.6,9.1-13,9.8-20.8c0.1-1,0.2-2.1,0.2-3.1V105c0-9-3.6-17.6-10-24L487.1,0L486.1,5.6z"/>
		</defs>
		<clipPath id="SVGID_4_">
			<use xlink:href="#SVGID_3_"  style="overflow:visible;"/>
		</clipPath>
		<g style="&st1;">
			<rect x="448.7" y="-14.7" transform="matrix(0.7547 -0.6561 0.6561 0.7547 84.7591 365.0181)" width="163.6" height="167.7"/>
		</g>
	</g>
</g>
<path d="M435.8,64h-24.7c-5,0-9,3.9-9.1,8.9c0,0.1,0,0.1,0,0.2v73.5h9.2c4.8,0,9-3.6,9-8v-58h16.5c7.7,0.7,12.3,5,12.3,12.4v0.2
	c0,6.5-4.5,11.7-12.3,12.4h-0.2c-6,0-10.9,4.9-10.9,10.9v5.4h8.2l4.1-0.2c16.6-1.3,29.5-11.1,29.5-28.8v-0.3
	C467.4,75.7,455.5,64,435.8,64z"/>
<path d="M151.2,73v73.6h9c5,0,9-3.6,9-8V64h-9.3C155,64.1,151.2,68.1,151.2,73z"/>
<path d="M219.6,78.5c3.5-3.4,3.6-9,0.2-12.5l-0.3-0.3c-3.5-3.3-9.1-3.2-12.5,0.3l-37.3,39.4l37.3,39.4c3.4,3.5,8.9,3.6,12.5,0.2
	l0.3-0.3c3.4-3.5,3.3-9.1-0.2-12.5l-26-26.8l0,0L219.6,78.5z"/>
<path d="M265.1,73.1v44.1c0,9.6-4.2,13.7-11.3,13.7c-4.1,0-7.3-1.4-11-4.1c-1.5-1.3-3.4-1.9-5.4-1.9c-4.8,0-8.6,3.8-8.6,8.6v0.1
	c0,2.7,1.3,5.3,3.4,7c6.3,4.8,13.9,7.3,21.8,7.2c9,0,16.4-2.6,21.5-7.7s7.8-12.3,7.8-22.1V64H274C269,64.2,265.1,68.2,265.1,73.1z"
	/>
<path d="M96.5,64h-9.4c-4.9,0.1-8.9,4.2-8.8,9.1v73.5h51.8c4.5,0.1,8.2-3.5,8.3-8l0,0v-8.5H96.5L96.5,64L96.5,64z"/>
<path d="M-0.7,73.1v73.5h55.5c4.5,0,8.1-3.5,8.1-8l0,0v-8.5H17.4v-17h31.5c4.5,0,8.1-3.5,8.1-8l0,0c0-4.5-3.6-8.1-8.1-8.1H17.4V80.2
	h37.4c4.5,0,8.1-3.5,8.1-8l0,0v-8.1H8.4c-5,0-9,3.9-9.1,8.9C-0.7,73-0.7,73-0.7,73.1z"/>
<path d="M380.1,81.6c-0.1-0.2-2.1-2.8-2-2.9l-7.1,7.1c-2.4,2.3-3.2,5.8-1.9,8.9c5.6,13.7-1,29.4-14.7,35c-6.5,2.6-13.8,2.6-20.3,0
	c-3.4-1.4-7.2-0.4-9.5,2.5c-1.6,1.5-6.6,6.6-6.6,6.6c2.9,2.4,6.1,4.3,9.5,5.9l0.4,0.2c22.1,9,47.2-1.7,56.2-23.7
	c2.1-5.2,3.2-10.7,3.2-16.3s-1.1-11.1-3.3-16.2C383,86.2,381.6,83.8,380.1,81.6z"/>
<path d="M319.3,115.1c-4.1-10-1.7-21.5,5.9-29.1s19.1-9.9,29.1-5.9c3.1,1.2,6.6,0.5,8.9-1.9l7.1-7.1c-2.8-2.3-5.9-4.2-9.1-5.8
	c-0.3-0.1-0.5-0.3-0.8-0.4c-22.1-9-47.3,1.7-56.2,23.8c-4.2,10.4-4.2,22,0,32.4c0.2,0.5,0.6,1.3,0.8,1.8c1.6,2.8,3.4,5.5,5.4,8
	c0,0,4.7-4.6,6.4-6.4C319.6,122.4,320.7,118.5,319.3,115.1z"/>
</svg>
