<?xml version="1.0" encoding="UTF-8" standalone="no"?>
<!-- Created with Inkscape (http://www.inkscape.org/) -->

<svg
   version="1.1"
   id="svg284"
   xml:space="preserve"
   width="1433.6133"
   height="860.41333"
   viewBox="0 0 1433.6133 860.41333"
   xmlns="http://www.w3.org/2000/svg"
   svg="http://www.w3.org/2000/svg"><defs
     id="defs288"><clipPath
       clipPathUnits="userSpaceOnUse"
       id="clipPath306"><path
         d="M 0,1080 H 1302.77 V 0 H 0 Z"
         id="path304" /></clipPath></defs><g
     id="g290"
     transform="matrix(1.3333333,0,0,-1.3333333,-134.38666,1096.3333)"><g
       id="g305"
       style="fill:#ffffff"><path
         id="path292"
         style="fill:#ffffff;fill-opacity:1;fill-rule:nonzero;stroke:none;stroke-width:1.33333"
         d="M 241.30664,559.5332 V 916.83984 H 542.01367 V 559.5332 Z m 149.82617,53.04102 c 42.45333,0 79.24024,31.83911 79.24024,76.42578 0,30.06667 -15.21318,52.00042 -31.83985,71.09375 l -52.70703,61.24023 h 86.32031 v 42.45313 H 311.17383 V 835.4668 l 87.02539,-98.66602 c 19.13333,-21.61333 24.4668,-35.76114 24.4668,-48.50781 0,-17.33333 -13.43889,-33.25391 -32.18555,-33.25391 -16.62667,0 -28.65328,11.32 -33.61328,28 l -43.91992,-13.13281 c 10.608,-34.23333 42.34688,-57.5067 78.18554,-57.33203 z"
         transform="matrix(0.75000002,0,0,-0.75000002,0,1080)" /><path
         id="path294"
         style="fill:#ffffff;fill-opacity:1;fill-rule:nonzero;stroke:none;stroke-width:1.33333"
         d="M 552.42578,559.5332 V 916.83984 H 853.13281 V 559.5332 Z m 150.6543,53.05274 c 63.32,0 86.66601,56.96133 86.66601,127.36133 0,70.39999 -23.34601,127.35937 -86.66601,127.35937 -63.32,0 -86.66602,-56.95938 -86.66602,-127.35937 0,-70.4 23.34602,-127.36133 86.66602,-127.36133 z m 0,42.45312 c -28.65333,0 -38.90625,38.21487 -38.90625,84.90821 0,46.69333 10.25292,84.90625 38.90625,84.90625 C 731.73341,824.85352 742,786.66667 742,740 c 0,-46.66667 -10.26659,-84.96094 -38.91992,-84.96094 z"
         transform="matrix(0.75000002,0,0,-0.75000002,0,1080)" /><path
         id="path296"
         style="fill:#ffffff;fill-opacity:1;fill-rule:nonzero;stroke:none;stroke-width:1.33333"
         d="M 863.54688,559.5332 V 916.83984 H 1164.2539 V 559.5332 Z m 149.81252,53.04102 c 42.4533,0 79.2402,31.83911 79.2402,76.42578 0,30.06667 -15.2132,52.00042 -31.8398,71.09375 L 1008,821.33398 h 86.3203 v 42.45313 H 933.41406 V 835.4668 l 87.02544,-98.66602 c 19.0933,-21.57333 24.4003,-35.72013 24.4003,-48.4668 0,-17.33333 -13.4408,-33.2539 -32.1875,-33.2539 -16.62662,0 -28.6529,11.32 -33.59957,28 L 935.1875,669.90625 c 10.60267,-34.23067 42.33721,-57.50536 78.1719,-57.33203 z"
         transform="matrix(0.75000002,0,0,-0.75000002,0,1080)" /><path
         id="path298"
         style="fill:#ffffff;fill-opacity:1;fill-rule:nonzero;stroke:none;stroke-width:1.33333"
         d="m 1174.6523,559.5332 v 357.30664 h 300.7071 V 559.5332 Z m 149.8282,53.04102 c 42.4533,0 79.2402,31.83911 79.2402,76.42578 0,30.06667 -15.2132,52.00042 -31.8398,71.09375 l -52.7071,61.24023 h 86.3203 v 42.45313 H 1244.5332 V 835.4668 l 87.0137,-98.66602 c 19.12,-21.61333 24.4531,-35.76114 24.4531,-48.50781 0,-17.33333 -13.4408,-33.25391 -32.1875,-33.25391 -16.6267,0 -28.6533,11.32 -33.6133,28 l -43.9062,-13.13281 c 10.608,-34.23333 42.3488,-57.5067 78.1875,-57.33203 z"
         transform="matrix(0.75000002,0,0,-0.75000002,0,1080)" /><g
         id="g324"
         transform="translate(198.39,799.62)"
         style="fill:#ffffff"><path
           d="M 0,0 V -17.09 H 26.52 V -31.24 H 0 v -37.12 h -15.91 v 82.5 H 33.61 V 0 Z"
           style="fill:#ffffff;fill-opacity:1;fill-rule:nonzero;stroke:none"
           id="path326" /></g><g
         id="g328"
         transform="translate(275.71,775)"
         style="fill:#ffffff"><path
           d="m 0,0 c -1.754,0.265 -3.526,0.385 -5.3,0.36 -6.165,0.094 -11.95,-2.973 -15.33,-8.13 v -35.95 h -15.32 v 57.14 h 14.74 V 7.64 c 3.41,4.25 9.66,6.6 16.61,6.6 1.547,0.028 3.091,-0.13 4.6,-0.47 z"
           style="fill:#ffffff;fill-opacity:1;fill-rule:nonzero;stroke:none"
           id="path330" /></g><path
         d="M 302.82,731.26 H 287.5 v 57.16 h 15.32 z m -7.66,87.21 c 5.206,-0.127 9.324,-4.451 9.197,-9.657 -0.127,-5.207 -4.451,-9.324 -9.657,-9.197 -5.1,0.124 -9.177,4.282 -9.2,9.384 0.016,5.247 4.282,9.487 9.529,9.471 0.043,0 0.087,0 0.131,-10e-4"
         style="fill:#ffffff;fill-opacity:1;fill-rule:nonzero;stroke:none"
         id="path332" /><g
         id="g334"
         transform="translate(344.66,754.48)"
         style="fill:#ffffff"><path
           d="M 0,0 15.34,33.94 H 31.02 L 5.09,-23.22 H -5.54 l -25.92,57.16 h 16.14 z"
           style="fill:#ffffff;fill-opacity:1;fill-rule:nonzero;stroke:none"
           id="path336" /></g><g
         id="g338"
         transform="translate(401.36,731.26)"
         style="fill:#ffffff"><path
           d="m 0,0 h -15.36 v 57.16 h 15.32 z m -7.66,87.21 c 5.206,-0.149 9.305,-4.49 9.156,-9.696 -0.149,-5.206 -4.49,-9.305 -9.696,-9.156 -5.084,0.145 -9.136,4.296 -9.16,9.382 0.015,5.247 4.281,9.487 9.528,9.472 0.057,0 0.115,-0.001 0.172,-0.002"
           style="fill:#ffffff;fill-opacity:1;fill-rule:nonzero;stroke:none"
           id="path340" /></g><path
         d="m 434.59,731.26 h -15.32 v 83.68 h 15.32 z"
         style="fill:#ffffff;fill-opacity:1;fill-rule:nonzero;stroke:none"
         id="path342" /><g
         id="g344"
         transform="translate(467.83,731.26)"
         style="fill:#ffffff"><path
           d="M 0,0 H -15.32 V 83.68 H 0 Z"
           style="fill:#ffffff;fill-opacity:1;fill-rule:nonzero;stroke:none"
           id="path346" /></g><path
         d="m 501.07,731.26 h -15.32 v 57.16 h 15.32 z m -7.66,87.21 c 5.206,-0.127 9.324,-4.451 9.197,-9.657 -0.127,-5.207 -4.451,-9.324 -9.657,-9.197 -5.116,0.124 -9.198,4.307 -9.2,9.424 0.044,5.252 4.336,9.474 9.589,9.431 0.023,0 0.047,-10e-4 0.071,-10e-4"
         style="fill:#ffffff;fill-opacity:1;fill-rule:nonzero;stroke:none"
         id="path348" /><g
         id="g350"
         transform="translate(545.51,744)"
         style="fill:#ffffff"><path
           d="M 0,0 C 5.39,-0.04 10.488,2.442 13.78,6.71 V 25 c -3.427,4.221 -8.563,6.686 -14,6.72 -8.13,0 -14.85,-6.6 -14.85,-15.79 C -15.09,6.47 -8.25,0 0,0 M 29.11,44.42 V -7.79 c 0,-10.25 -1.77,-16.38 -5.19,-21.21 -5.18,-7.19 -14.38,-11.44 -25.34,-11.44 -11.19,0 -21.8,5.19 -27.46,11.79 l 9.19,9.43 c 3.07,-2.71 8.84,-7.66 18.27,-7.66 4.95,0 9.08,1.53 11.67,4.59 2.36,2.6 3.53,6.13 3.53,13.56 -4.644,-3.494 -10.33,-5.323 -16.14,-5.19 -15.56,0 -28,12.38 -28,29.82 0,17.44 12.37,29.7 27.82,29.7 6.385,0.062 12.592,-2.106 17.55,-6.13 v 4.95 z"
           style="fill:#ffffff;fill-opacity:1;fill-rule:nonzero;stroke:none"
           id="path352" /></g><g
         id="g354"
         transform="translate(592.54,731.26)"
         style="fill:#ffffff"><path
           d="M 0,0 V 83.68 H 15.32 V 53.04 c 4.596,3.431 10.175,5.29 15.91,5.3 7.508,0.099 14.673,-3.139 19.56,-8.84 3.77,-4.48 5.78,-10.61 5.78,-20.39 V 0 H 41.25 v 30.52 c 0,5.66 -1.3,8.61 -3.42,10.73 -2.336,2.151 -5.426,3.294 -8.6,3.18 C 23.768,44.277 18.663,41.682 15.32,37.36 V 0 Z"
           style="fill:#ffffff;fill-opacity:1;fill-rule:nonzero;stroke:none"
           id="path356" /></g><g
         id="g358"
         transform="translate(701.6801,766.62)"
         style="fill:#ffffff"><path
           d="m 0,0 c -0.508,6.018 -5.644,10.583 -11.68,10.38 -7,0 -11.9,-4.84 -12.61,-10.37 z m 13.91,-26.28 c -5.78,-6.61 -14.74,-10.26 -23.93,-10.26 -16.85,0 -29.46,11.9 -29.46,29.7 0,15.91 10.49,29.82 27.81,29.82 16.38,0 27,-13.32 27,-29.23 0.009,-1.461 -0.111,-2.92 -0.36,-4.36 h -39.72 c 0.82,-8 7.42,-13 15.55,-13 6.49,0 11.67,3.42 14.62,6.25 z"
           style="fill:#ffffff;fill-opacity:1;fill-rule:nonzero;stroke:none"
           id="path360" /></g><g
         id="g362"
         transform="translate(752.12,751.06)"
         style="fill:#ffffff"><path
           d="m 0,0 c 0,-3.06 0.48,-4.95 1.54,-6 1.466,-1.262 3.37,-1.897 5.3,-1.77 2.474,0.052 4.9,0.7 7.07,1.89 l 5,-10.85 c -4.184,-2.888 -9.178,-4.373 -14.26,-4.24 -5.54,0 -11.43,1.41 -15.44,6 -2.83,3.3 -4.48,7.66 -4.48,14.74 v 25.17 h -13.6 v 12.42 h 13.55 V 55.63 H 0 V 37.36 H 17.09 V 24.94 H 0 Z"
           style="fill:#ffffff;fill-opacity:1;fill-rule:nonzero;stroke:none"
           id="path364" /></g><g
         id="g366"
         transform="translate(817.42,766.62)"
         style="fill:#ffffff"><path
           d="m 0,0 c -0.508,6.01 -5.631,10.572 -11.66,10.38 -7,0 -11.91,-4.84 -12.61,-10.37 z m 13.91,-26.28 c -5.77,-6.61 -14.73,-10.26 -23.92,-10.26 -16.86,0 -29.47,11.9 -29.47,29.7 0,15.91 10.49,29.82 27.82,29.82 16.38,0 27,-13.32 27,-29.23 0.012,-1.461 -0.105,-2.92 -0.35,-4.36 h -39.74 c 0.83,-8 7.43,-13 15.56,-13 6.48,0 11.67,3.42 14.62,6.25 z"
           style="fill:#ffffff;fill-opacity:1;fill-rule:nonzero;stroke:none"
           id="path368" /></g><g
         id="g370"
         transform="translate(846.66,731.26)"
         style="fill:#ffffff"><path
           d="m 0,0 v 57.16 h 14.14 v -5.07 c 4.79,4.019 10.838,6.23 17.09,6.25 7.508,0.099 14.673,-3.139 19.56,-8.84 3.77,-4.48 5.78,-10.61 5.78,-20.39 V 0 H 41.25 v 30.52 c 0,5.66 -1.3,8.61 -3.42,10.73 -2.336,2.151 -5.426,3.294 -8.6,3.18 C 23.775,44.271 18.678,41.677 15.34,37.36 V 0 Z"
           style="fill:#ffffff;fill-opacity:1;fill-rule:nonzero;stroke:none"
           id="path372" /></g><g
         id="g374"
         transform="translate(922.33,748.35)"
         style="fill:#ffffff"><path
           d="m 0,0 c 4.548,-3.353 10.021,-5.221 15.67,-5.35 4.13,0 7.31,2 7.31,4.84 0,8.6 -27.7,5.54 -27.7,23.92 0,11 10.61,17.8 21.93,17.8 7.42,0 14.84,-2.83 19.09,-6.25 L 29.46,24.65 c -3.267,2.253 -7.113,3.52 -11.08,3.65 -4.24,0 -7.78,-1.29 -7.78,-4.24 0,-7.07 27.7,-4.36 27.7,-24.39 0,-11.55 -11.2,-17.92 -22.39,-17.92 -8.512,-0.106 -16.785,2.818 -23.34,8.25 z"
           style="fill:#ffffff;fill-opacity:1;fill-rule:nonzero;stroke:none"
           id="path376" /></g><g
         id="g378"
         transform="translate(1032.53,804.93)"
         style="fill:#ffffff"><path
           d="M 0,0 C 2.41,-0.133 4.471,1.714 4.603,4.123 4.736,6.533 2.89,8.594 0.48,8.727 -1.93,8.859 -3.991,7.013 -4.123,4.603 -4.128,4.522 -4.13,4.441 -4.13,4.36 -4.251,2.071 -2.495,0.117 -0.206,-0.004 -0.137,-0.008 -0.069,-0.01 0,-0.01 Z m 0,17.32 c 7.18,0 13,-5.82 13,-13 0,-7.18 -5.82,-13 -13,-13 -7.18,0 -13,5.82 -13,13 -0.039,7.135 5.714,12.951 12.85,12.99 0.05,0 0.1,0 0.15,0 z m -3.18,-78.25 c 5.392,-0.039 10.493,2.443 13.79,6.71 v 18.29 c -3.43,4.217 -8.564,6.682 -14,6.72 -8.13,0 -14.85,-6.6 -14.85,-15.79 -0.03,-9.46 6.81,-15.93 15.06,-15.93 m 29.11,44.42 V -73.67 H 11.78 v 4.95 c -4.853,-4.051 -10.999,-6.226 -17.32,-6.13 -15.56,0 -28,12.38 -28,29.82 0,17.44 12.37,29.7 27.81,29.7 6.388,0.063 12.599,-2.105 17.56,-6.13 v 4.95 z"
           style="fill:#ffffff;fill-opacity:1;fill-rule:nonzero;stroke:none"
           id="path380" /></g><g
         id="g382"
         transform="translate(1112.3199,775)"
         style="fill:#ffffff"><path
           d="m 0,0 c -1.754,0.265 -3.526,0.385 -5.3,0.36 -6.162,0.091 -11.942,-2.976 -15.32,-8.13 v -35.95 h -15.32 v 57.14 h 14.73 V 7.64 c 3.42,4.25 9.66,6.6 16.61,6.6 1.547,0.028 3.091,-0.13 4.6,-0.47 z"
           style="fill:#ffffff;fill-opacity:1;fill-rule:nonzero;stroke:none"
           id="path384" /></g><g
         id="g386"
         transform="translate(1039.39,399.42)"
         style="fill:#ffffff"><path
           d="m 0,0 c 8.13,0 14.72,-6.59 14.72,-14.72 0,-8.13 -6.59,-14.72 -14.72,-14.72 -8.13,0 -14.72,6.59 -14.72,14.72 C -14.72,-6.59 -8.13,0 0,0"
           style="fill:#ffffff;fill-opacity:1;fill-rule:nonzero;stroke:none"
           id="path388" /></g><g
         id="g390"
         transform="translate(582.68,271.6)"
         style="fill:#ffffff"><path
           d="m 0,0 c 9.82,0 17.78,-7.96 17.78,-17.78 0,-9.82 -7.96,-17.78 -17.78,-17.78 -9.82,0 -17.78,7.96 -17.78,17.78 C -17.78,-7.96 -9.82,0 0,0"
           style="fill:#ffffff;fill-opacity:1;fill-rule:nonzero;stroke:none"
           id="path392" /></g><g
         id="g394"
         transform="translate(226.35,397.42)"
         style="fill:#ffffff"><path
           d="m 0,0 c 11.581,0 20.97,-9.389 20.97,-20.97 0,-11.581 -9.389,-20.97 -20.97,-20.97 -11.581,0 -20.97,9.389 -20.97,20.97 C -20.97,-9.389 -11.581,0 0,0"
           style="fill:#ffffff;fill-opacity:1;fill-rule:nonzero;stroke:none"
           id="path396" /></g><g
         id="g398"
         transform="translate(1115.03,409.55)"
         style="fill:#ffffff"><path
           d="m 0,0 c 8.748,0 15.84,-7.092 15.84,-15.84 0,-8.748 -7.092,-15.84 -15.84,-15.84 -8.748,0 -15.84,7.092 -15.84,15.84 C -15.84,-7.092 -8.748,0 0,0"
           style="fill:#ffffff;fill-opacity:1;fill-rule:nonzero;stroke:none"
           id="path400" /></g><g
         id="g402"
         transform="translate(375.77,262.92)"
         style="fill:#ffffff"><path
           d="m 0,0 c 12.482,0 22.6,-10.118 22.6,-22.6 0,-12.482 -10.118,-22.6 -22.6,-22.6 -12.482,0 -22.6,10.118 -22.6,22.6 C -22.6,-10.118 -12.482,0 0,0"
           style="fill:#ffffff;fill-opacity:1;fill-rule:nonzero;stroke:none"
           id="path404" /></g><g
         id="g406"
         transform="translate(173.33,489.91)"
         style="fill:#ffffff"><path
           d="m 0,0 c 8.671,0 15.7,-7.029 15.7,-15.7 0,-8.671 -7.029,-15.7 -15.7,-15.7 -8.671,0 -15.7,7.029 -15.7,15.7 C -15.7,-7.029 -8.671,0 0,0"
           style="fill:#ffffff;fill-opacity:1;fill-rule:nonzero;stroke:none"
           id="path408" /></g><g
         id="g410"
         transform="translate(822.06,288.64)"
         style="fill:#ffffff"><path
           d="m 0,0 c 11.482,0 20.79,-9.308 20.79,-20.79 0,-11.482 -9.308,-20.79 -20.79,-20.79 -11.482,0 -20.79,9.308 -20.79,20.79 C -20.79,-9.308 -11.482,0 0,0"
           style="fill:#ffffff;fill-opacity:1;fill-rule:nonzero;stroke:none"
           id="path412" /></g><g
         id="g414"
         transform="translate(152.41,351.3701)"
         style="fill:#ffffff"><path
           d="m 0,0 c 8.748,0 15.84,-7.092 15.84,-15.84 0,-8.748 -7.092,-15.84 -15.84,-15.84 -8.748,0 -15.84,7.092 -15.84,15.84 C -15.84,-7.092 -8.748,0 0,0"
           style="fill:#ffffff;fill-opacity:1;fill-rule:nonzero;stroke:none"
           id="path416" /></g><g
         id="g418"
         transform="translate(1108.8101,556.65)"
         style="fill:#ffffff"><path
           d="m 0,0 c 8.461,0 15.32,-6.859 15.32,-15.32 0,-8.461 -6.859,-15.32 -15.32,-15.32 -8.461,0 -15.32,6.859 -15.32,15.32 C -15.32,-6.859 -8.461,0 0,0"
           style="fill:#ffffff;fill-opacity:1;fill-rule:nonzero;stroke:none"
           id="path420" /></g><g
         id="g422"
         transform="translate(921.45,273.42)"
         style="fill:#ffffff"><path
           d="m 0,0 c 8.461,0 15.32,-6.859 15.32,-15.32 0,-8.461 -6.859,-15.32 -15.32,-15.32 -8.461,0 -15.32,6.859 -15.32,15.32 C -15.32,-6.859 -8.461,0 0,0"
           style="fill:#ffffff;fill-opacity:1;fill-rule:nonzero;stroke:none"
           id="path424" /></g><g
         id="g426"
         transform="translate(157.63,263.4)"
         style="fill:#ffffff"><path
           d="m 0,0 c 5.026,0 9.1,-4.074 9.1,-9.1 0,-5.026 -4.074,-9.1 -9.1,-9.1 -5.026,0 -9.1,4.074 -9.1,9.1 0,5.026 4.074,9.1 9.1,9.1"
           style="fill:#ffffff;fill-opacity:1;fill-rule:nonzero;stroke:none"
           id="path428" /></g><g
         id="g430"
         transform="translate(330.92,335.26)"
         style="fill:#ffffff"><path
           d="m 0,0 c 8.461,0 15.32,-6.859 15.32,-15.32 0,-8.461 -6.859,-15.32 -15.32,-15.32 -8.461,0 -15.32,6.859 -15.32,15.32 C -15.32,-6.859 -8.461,0 0,0"
           style="fill:#ffffff;fill-opacity:1;fill-rule:nonzero;stroke:none"
           id="path432" /></g><g
         id="g434"
         transform="translate(126.06,425.3)"
         style="fill:#ffffff"><path
           d="m 0,0 c 8.721,0 15.79,-7.069 15.79,-15.79 0,-8.721 -7.069,-15.79 -15.79,-15.79 -8.721,0 -15.79,7.069 -15.79,15.79 C -15.79,-7.069 -8.721,0 0,0"
           style="fill:#ffffff;fill-opacity:1;fill-rule:nonzero;stroke:none"
           id="path436" /></g><g
         id="g438"
         transform="translate(838.05,370.8)"
         style="fill:#ffffff"><path
           d="m 0,0 c 11.112,0 20.12,-9.008 20.12,-20.12 0,-11.112 -9.008,-20.12 -20.12,-20.12 -11.112,0 -20.12,9.008 -20.12,20.12 C -20.12,-9.008 -11.112,0 0,0"
           style="fill:#ffffff;fill-opacity:1;fill-rule:nonzero;stroke:none"
           id="path440" /></g><g
         id="g442"
         transform="translate(1075.66,340.17)"
         style="fill:#ffffff"><path
           d="m 0,0 c 8.461,0 15.32,-6.859 15.32,-15.32 0,-8.461 -6.859,-15.32 -15.32,-15.32 -8.461,0 -15.32,6.859 -15.32,15.32 C -15.32,-6.859 -8.461,0 0,0"
           style="fill:#ffffff;fill-opacity:1;fill-rule:nonzero;stroke:none"
           id="path444" /></g><g
         id="g446"
         transform="translate(413.18,370.8)"
         style="fill:#ffffff"><path
           d="m 0,0 c 8.461,0 15.32,-6.859 15.32,-15.32 0,-8.461 -6.859,-15.32 -15.32,-15.32 -8.461,0 -15.32,6.859 -15.32,15.32 C -15.32,-6.859 -8.461,0 0,0"
           style="fill:#ffffff;fill-opacity:1;fill-rule:nonzero;stroke:none"
           id="path448" /></g><g
         id="g450"
         transform="translate(1002.94,334.85)"
         style="fill:#ffffff"><path
           d="m 0,0 c 8.461,0 15.32,-6.859 15.32,-15.32 0,-8.461 -6.859,-15.32 -15.32,-15.32 -8.461,0 -15.32,6.859 -15.32,15.32 C -15.32,-6.859 -8.461,0 0,0"
           style="fill:#ffffff;fill-opacity:1;fill-rule:nonzero;stroke:none"
           id="path452" /></g><g
         id="g454"
         transform="translate(730.05,331.2)"
         style="fill:#ffffff"><path
           d="m 0,0 c 8.461,0 15.32,-6.859 15.32,-15.32 0,-8.461 -6.859,-15.32 -15.32,-15.32 -8.461,0 -15.32,6.859 -15.32,15.32 C -15.32,-6.859 -8.461,0 0,0"
           style="fill:#ffffff;fill-opacity:1;fill-rule:nonzero;stroke:none"
           id="path456" /></g><g
         id="g458"
         transform="translate(659.34,195.14)"
         style="fill:#ffffff"><path
           d="m 0,0 c 5.026,0 9.1,-4.074 9.1,-9.1 0,-5.026 -4.074,-9.1 -9.1,-9.1 -5.026,0 -9.1,4.074 -9.1,9.1 0,5.026 4.074,9.1 9.1,9.1"
           style="fill:#ffffff;fill-opacity:1;fill-rule:nonzero;stroke:none"
           id="path460" /></g><g
         id="g462"
         transform="translate(211.89,304.39)"
         style="fill:#ffffff"><path
           d="m 0,0 c 5.026,0 9.1,-4.074 9.1,-9.1 0,-5.026 -4.074,-9.1 -9.1,-9.1 -5.026,0 -9.1,4.074 -9.1,9.1 0,5.026 4.074,9.1 9.1,9.1"
           style="fill:#ffffff;fill-opacity:1;fill-rule:nonzero;stroke:none"
           id="path464" /></g><g
         id="g466"
         transform="translate(526.17,319.57)"
         style="fill:#ffffff"><path
           d="m 0,0 c 8.461,0 15.32,-6.859 15.32,-15.32 0,-8.461 -6.859,-15.32 -15.32,-15.32 -8.461,0 -15.32,6.859 -15.32,15.32 C -15.32,-6.859 -8.461,0 0,0"
           style="fill:#ffffff;fill-opacity:1;fill-rule:nonzero;stroke:none"
           id="path468" /></g><g
         id="g470"
         transform="translate(1141.96,476.7)"
         style="fill:#ffffff"><path
           d="m 0,0 c 8.748,0 15.84,-7.092 15.84,-15.84 0,-8.748 -7.092,-15.84 -15.84,-15.84 -8.748,0 -15.84,7.092 -15.84,15.84 C -15.84,-7.092 -8.748,0 0,0"
           style="fill:#ffffff;fill-opacity:1;fill-rule:nonzero;stroke:none"
           id="path472" /></g><g
         id="g474"
         transform="translate(757.1,241.02)"
         style="fill:#ffffff"><path
           d="m 0,0 c 8.461,0 15.32,-6.859 15.32,-15.32 0,-8.461 -6.859,-15.32 -15.32,-15.32 -8.461,0 -15.32,6.859 -15.32,15.32 C -15.32,-6.859 -8.461,0 0,0"
           style="fill:#ffffff;fill-opacity:1;fill-rule:nonzero;stroke:none"
           id="path476" /></g><g
         id="g478"
         transform="translate(444.57,310.52)"
         style="fill:#ffffff"><path
           d="m 0,0 c 9.792,0 17.73,-7.938 17.73,-17.73 0,-9.792 -7.938,-17.73 -17.73,-17.73 -9.792,0 -17.73,7.938 -17.73,17.73 C -17.73,-7.938 -9.792,0 0,0"
           style="fill:#ffffff;fill-opacity:1;fill-rule:nonzero;stroke:none"
           id="path480" /></g><g
         id="g482"
         transform="translate(268.97,285.9901)"
         style="fill:#ffffff"><path
           d="m 0,0 c 8.748,0 15.84,-7.092 15.84,-15.84 0,-8.748 -7.092,-15.84 -15.84,-15.84 -8.748,0 -15.84,7.092 -15.84,15.84 C -15.84,-7.092 -8.748,0 0,0"
           style="fill:#ffffff;fill-opacity:1;fill-rule:nonzero;stroke:none"
           id="path484" /></g><g
         id="g486"
         transform="translate(668.44,278.76)"
         style="fill:#ffffff"><path
           d="m 0,0 c 8.748,0 15.84,-7.092 15.84,-15.84 0,-8.748 -7.092,-15.84 -15.84,-15.84 -8.748,0 -15.84,7.092 -15.84,15.84 C -15.84,-7.092 -8.748,0 0,0"
           style="fill:#ffffff;fill-opacity:1;fill-rule:nonzero;stroke:none"
           id="path488" /></g><g
         id="g490"
         transform="translate(927.07,341.5)"
         style="fill:#ffffff"><path
           d="m 0,0 c 8.748,0 15.84,-7.092 15.84,-15.84 0,-8.748 -7.092,-15.84 -15.84,-15.84 -8.748,0 -15.84,7.092 -15.84,15.84 C -15.84,-7.092 -8.748,0 0,0"
           style="fill:#ffffff;fill-opacity:1;fill-rule:nonzero;stroke:none"
           id="path492" /></g><g
         id="g494"
         transform="translate(1166.9,350.6)"
         style="fill:#ffffff"><path
           d="m 0,0 c 5.026,0 9.1,-4.074 9.1,-9.1 0,-5.026 -4.074,-9.1 -9.1,-9.1 -5.026,0 -9.1,4.074 -9.1,9.1 0,5.026 4.074,9.1 9.1,9.1"
           style="fill:#ffffff;fill-opacity:1;fill-rule:nonzero;stroke:none"
           id="path496" /></g><g
         id="g498"
         transform="translate(116.63,514.55)"
         style="fill:#ffffff"><path
           d="m 0,0 c 8.748,0 15.84,-7.092 15.84,-15.84 0,-8.748 -7.092,-15.84 -15.84,-15.84 -8.748,0 -15.84,7.092 -15.84,15.84 C -15.84,-7.092 -8.748,0 0,0"
           style="fill:#ffffff;fill-opacity:1;fill-rule:nonzero;stroke:none"
           id="path500" /></g><g
         id="g502"
         transform="translate(622.61,372.06)"
         style="fill:#ffffff"><path
           d="m 0,0 c 11.427,0 20.69,-9.263 20.69,-20.69 0,-11.427 -9.263,-20.69 -20.69,-20.69 -11.427,0 -20.69,9.263 -20.69,20.69 C -20.69,-9.263 -11.427,0 0,0"
           style="fill:#ffffff;fill-opacity:1;fill-rule:nonzero;stroke:none"
           id="path504" /></g><g
         id="g506"
         transform="translate(504.09,224.06)"
         style="fill:#ffffff"><path
           d="m 0,0 c 8.461,0 15.32,-6.859 15.32,-15.32 0,-8.461 -6.859,-15.32 -15.32,-15.32 -8.461,0 -15.32,6.859 -15.32,15.32 C -15.32,-6.859 -8.461,0 0,0"
           style="fill:#ffffff;fill-opacity:1;fill-rule:nonzero;stroke:none"
           id="path508" /></g></g></g></svg>
